<?xml version="1.0" encoding="utf-8"?>
<!-- Generator: Adobe Illustrator 18.0.0, SVG Export Plug-In . SVG Version: 6.00 Build 0)  -->
<!DOCTYPE svg PUBLIC "-//W3C//DTD SVG 1.1//EN" "http://www.w3.org/Graphics/SVG/1.1/DTD/svg11.dtd">
<svg version="1.1" id="Layer_1" xmlns="http://www.w3.org/2000/svg" xmlns:xlink="http://www.w3.org/1999/xlink" x="0px" y="0px"
	 viewBox="0 0 16.5 16.6" enable-background="new 0 0 16.5 16.6" xml:space="preserve">
<g>
	<path fill="#FFFFFF" d="M8.7,15.9c-1.5,0-3,0-4.5-0.2c-0.5,0-0.8-0.3-1-0.7c-0.4-0.9-0.7-1.7-1-2.6C1.6,10.7,1.1,9,0.7,7.3
		c-0.2-0.6,0-1.1,0.5-1.5c1.3-1.2,2.7-2.2,4.1-3.2C6,2,6.8,1.5,7.5,1.1C8,0.7,8.5,0.7,9,1c1.3,0.8,1.7,1.1,2.2,1.5
		c0.6,0.4,3.6,2.8,4.2,3.3c0.4,0.4,0.6,0.8,0.4,1.4c-0.4,1.9-1,3.7-1.6,5.6c-0.3,0.7-0.5,1.5-0.8,2.2c-0.2,0.5-0.5,0.7-1,0.8
		C11.2,15.9,10,15.9,8.7,15.9z"/>
	<g>
		<path fill="#BF0D3E" d="M15.6,5.3c-1.2-1.1-2.4-2.1-3.7-3C11,1.7,10.1,1.1,9.1,0.5C8.6,0.2,8,0.2,7.5,0.5c-0.1,0-0.2,0.1-0.3,0.1
			c-1,0.6-1.9,1.2-2.8,1.9C3.2,3.4,2,4.3,0.9,5.3C0.5,5.7,0.2,6.1,0.3,6.6c0,0.2,0,0.4,0.1,0.6C0.5,8.2,0.8,9.1,1,10
			c0.5,1.7,1,3.3,1.7,4.9c0.3,0.6,0.7,1,1.3,1.1C4.3,16,4.5,16,4.7,16c1.1,0.1,2.1,0.1,3.2,0.2c0.6,0,1.2,0,1.8,0
			c0.9,0,1.8-0.1,2.8-0.2c0.5-0.1,0.9-0.3,1.2-0.8c0.1-0.2,0.2-0.4,0.3-0.6c1-2.3,1.7-4.7,2.3-7.1c0.1-0.3,0.1-0.6,0.1-0.9
			C16.3,6.1,16,5.7,15.6,5.3z M15.5,7.2c-0.4,1.8-1,3.5-1.6,5.2c-0.2,0.7-0.5,1.4-0.8,2.1c-0.2,0.4-0.5,0.7-1,0.7
			c-1,0.1-2,0.1-3.1,0.1l0-3.7c0-0.1,0-0.1-0.1-0.1c0,0,0,0,0,0c-0.1,0-0.1,0-0.1,0.1l0,3.7c0,0-0.1,0-0.1,0c-0.1,0-0.2,0-0.4,0
			l0-2.5c0-0.1,0-0.1-0.1-0.1c-0.1,0-0.1,0-0.1,0.1l0,2.5c-0.1,0-0.3,0-0.4,0l0-3.7c0-0.1,0-0.1-0.1-0.1c0,0,0,0,0,0
			c-0.1,0-0.1,0-0.1,0.1l0,3.7c-1,0-2,0-3.1-0.2c-0.4,0-0.7-0.3-0.9-0.7c-0.4-0.8-0.7-1.6-0.9-2.5c-0.5-1.6-1-3.2-1.4-4.9
			c-0.1-0.6,0-1,0.4-1.4c1.2-1.1,2.6-2.1,3.9-3c0.7-0.5,1.4-0.9,2.1-1.4c0.5-0.3,0.9-0.3,1.4,0c1.6,1,3,2.1,4.5,3.2
			C14,5,14.5,5.5,15,5.9C15.5,6.3,15.6,6.7,15.5,7.2z M10.9,3.3C10.5,2.9,10.1,2.7,9,2C8.5,1.7,8.1,1.7,7.6,2C7,2.4,6.4,2.8,5.7,3.2
			C4.5,4.1,3.3,5,2.2,6C1.7,6.4,1.6,6.8,1.7,7.3c0.4,1.5,0.8,3,1.3,4.5c0.3,0.8,0.5,1.5,0.9,2.3c0.2,0.4,0.4,0.6,0.8,0.6
			c0.7,0.1,1.4,0.1,2.1,0.1l0-1.7c0,0,0-0.1,0-0.1l-0.6-0.7c0,0,0-0.1,0-0.1L5.6,4.9c0-0.1,0.1-0.2,0.2-0.2l2.4,0.8c0,0,0.1,0,0.1,0
			l2.4-0.8c0.1,0,0.2,0,0.2,0.2l-0.5,7.2c0,0,0,0.1,0,0.1L9.7,13c0,0,0,0.1,0,0.1l0,1.7c0.7,0,1.4,0,2.1-0.1c0.4,0,0.7-0.3,0.9-0.7
			c0.3-0.6,0.5-1.3,0.7-1.9c0.5-1.6,1.1-3.2,1.4-4.8c0.1-0.5,0-0.9-0.4-1.2C14,5.7,11.4,3.6,10.9,3.3z M4.8,6.9L4.7,6.1
			C4.7,6,4.8,6,4.8,6l0.3,0c0.1,0,0.1,0,0.1,0.1l0.1,0.9C5.3,7,5.3,7,5.2,7L4.9,7C4.9,7.1,4.8,7,4.8,6.9z M4.9,8.9L4.9,8
			c0-0.1,0-0.1,0.1-0.1l0.3,0c0.1,0,0.1,0,0.1,0.1l0.1,0.9c0,0.1,0,0.1-0.1,0.1L5.1,9C5,9,4.9,9,4.9,8.9z M5.5,10.9l-0.3,0
			c-0.1,0-0.1,0-0.1-0.1L5,10c0-0.1,0-0.1,0.1-0.1l0.3,0c0.1,0,0.1,0,0.1,0.1l0.1,0.9C5.6,10.9,5.6,10.9,5.5,10.9z M11.4,10.9
			c0,0.1-0.1,0.1-0.1,0.1l-0.3,0c-0.1,0-0.1-0.1-0.1-0.1L11,10c0-0.1,0.1-0.1,0.1-0.1l0.3,0c0.1,0,0.1,0.1,0.1,0.1L11.4,10.9z
			 M11.6,8.9C11.6,9,11.5,9,11.5,9l-0.3,0C11.1,9,11,8.9,11,8.9L11.1,8c0-0.1,0.1-0.1,0.1-0.1l0.3,0c0.1,0,0.1,0.1,0.1,0.1L11.6,8.9
			z M11.7,7c0,0.1-0.1,0.1-0.1,0.1l-0.3,0c-0.1,0-0.1-0.1-0.1-0.1l0.1-0.9C11.3,6,11.3,6,11.4,6l0.3,0c0.1,0,0.1,0.1,0.1,0.1L11.7,7
			z M8.7,8.2L8.3,7.4c0,0-0.1-0.1-0.1-0.1c0,0,0,0,0,0c0,0-0.1,0.1-0.1,0.1L7.8,8.2L7,8.3c0,0-0.1,0-0.1,0.1c0,0,0,0.1,0,0.1L7.5,9
			L7.4,9.8c0,0,0,0.1,0,0.1s0.1,0,0.1,0l0.7-0.4l0.7,0.4c0,0,0,0,0,0c0,0,0,0,0.1,0c0,0,0-0.1,0-0.1L9,9l0.6-0.5c0,0,0-0.1,0-0.1
			s0-0.1-0.1-0.1L8.7,8.2z M8.8,8.9C8.8,8.9,8.7,9,8.8,8.9l0.1,0.7L8.3,9.3c0,0,0,0,0,0c0,0,0,0,0,0L7.6,9.6L7.8,9c0,0,0-0.1,0-0.1
			L7.3,8.5l0.6-0.1c0,0,0.1,0,0.1-0.1l0.3-0.6l0.3,0.6c0,0,0,0.1,0.1,0.1l0.6,0.1L8.8,8.9z"/>
	</g>
</g>
</svg>
