<?xml version="1.0" encoding="utf-8"?>
<!-- Generator: Adobe Illustrator 18.0.0, SVG Export Plug-In . SVG Version: 6.00 Build 0)  -->
<!DOCTYPE svg PUBLIC "-//W3C//DTD SVG 1.1//EN" "http://www.w3.org/Graphics/SVG/1.1/DTD/svg11.dtd">
<svg version="1.1" id="Layer_1" xmlns="http://www.w3.org/2000/svg" xmlns:xlink="http://www.w3.org/1999/xlink" x="0px" y="0px"
	 viewBox="0 0 14.1 14.1" enable-background="new 0 0 14.1 14.1" xml:space="preserve">
<g>
	<g>
		<path fill="#FFFFFF" d="M11.7,7c0.6,0,1.1-0.4,1.3-1l1-4.4C14.2,0.8,13.6,0,12.8,0H0.9C0.4,0,0,0.4,0,0.9c0,0.5,0.4,0.9,0.9,0.9
			h0.9v7.5c0,0.7,0.6,1.3,1.3,1.3h9.2c0.5,0,0.9-0.4,0.9-0.9c0-0.5-0.4-0.9-0.9-0.9H3.5V7H11.7z M3.5,1.8h8.7l-0.8,3.5H3.5V1.8z
			 M4,11.4c-0.7,0-1.3,0.6-1.3,1.3c0,0.7,0.6,1.3,1.3,1.3c0.7,0,1.3-0.6,1.3-1.3C5.3,12,4.7,11.4,4,11.4z M11,11.4
			c-0.7,0-1.3,0.6-1.3,1.3c0,0.7,0.6,1.3,1.3,1.3s1.3-0.6,1.3-1.3C12.3,12,11.7,11.4,11,11.4z"/>
	</g>
</g>
</svg>
