<?xml version="1.0" encoding="utf-8"?>
<!-- Generator: Adobe Illustrator 18.0.0, SVG Export Plug-In . SVG Version: 6.00 Build 0)  -->
<!DOCTYPE svg PUBLIC "-//W3C//DTD SVG 1.1//EN" "http://www.w3.org/Graphics/SVG/1.1/DTD/svg11.dtd">
<svg version="1.1" id="Layer_1" xmlns="http://www.w3.org/2000/svg" xmlns:xlink="http://www.w3.org/1999/xlink" x="0px" y="0px"
	 viewBox="0 0 21.3 18.2" enable-background="new 0 0 21.3 18.2" xml:space="preserve">
<path fill="#D4D8E0" d="M14.5,6.2H6.8l3-5.1c0.2-0.3,0.1-0.8-0.3-1C9.2-0.1,8.8,0,8.6,0.3L5.2,6.2H1.8c-1.3,0-2.1,1.1-1.6,2.3
	l2.7,7.9c0.3,1,1.5,1.8,2.5,1.8H16c1.1,0,2.2-0.8,2.5-1.8l2.7-7.9c0.4-1.2-0.4-2.3-1.6-2.3h-3.4l-3.5-5.8c-0.2-0.3-0.6-0.5-1-0.3
	c-0.3,0.2-0.5,0.6-0.3,1L14.5,6.2L14.5,6.2L14.5,6.2L14.5,6.2z M1.8,7.6h17.8c0.3,0,0.4,0.1,0.3,0.4L17.2,16
	c-0.2,0.5-0.7,0.9-1.2,0.9H5.3c-0.5,0-1-0.4-1.2-0.9L1.5,8C1.4,7.7,1.5,7.6,1.8,7.6L1.8,7.6L1.8,7.6z M16.3,11.2
	c0.4,0,0.7-0.3,0.7-0.7c0-0.4-0.3-0.7-0.7-0.7H5c-0.4,0-0.7,0.3-0.7,0.7c0,0.4,0.3,0.7,0.7,0.7H16.3L16.3,11.2L16.3,11.2z
	 M14.9,14.7c0.4,0,0.7-0.3,0.7-0.7c0-0.4-0.3-0.7-0.7-0.7H6.7C6.3,13.3,6,13.6,6,14c0,0.4,0.3,0.7,0.7,0.7H14.9L14.9,14.7L14.9,14.7
	z"/>
</svg>
