<?xml version="1.0" encoding="utf-8"?>
<!-- Generator: Adobe Illustrator 19.2.0, SVG Export Plug-In . SVG Version: 6.00 Build 0)  -->
<svg version="1.1" id="Layer_1" xmlns="http://www.w3.org/2000/svg" xmlns:xlink="http://www.w3.org/1999/xlink" x="0px" y="0px"
	 viewBox="0 0 40.5 37.8" style="enable-background:new 0 0 40.5 37.8;" xml:space="preserve">
<style type="text/css">
	.st0{fill:#FFFFFF;}
</style>
<path class="st0" d="M40.3,35.7l-4.4-6.2c1.7-2.4,2.7-5.2,3.1-8.3c0.8-0.4,1.5-1.3,1.5-2.3c0-1-0.6-1.9-1.5-2.3
	c-0.6-5.2-3.4-9.8-7.5-12.8c0-0.9-0.5-1.8-1.3-2.3c-0.8-0.6-1.8-0.5-2.6,0c-2.3-1-4.8-1.5-7.4-1.5c-2.6,0-5.1,0.5-7.4,1.5
	c-0.2-0.2-0.5-0.3-0.8-0.4c-0.7-0.1-1.4,0-2,0.3C9.2,1.9,8.8,2.9,8.9,3.9c-3.9,3-6.7,7.5-7.3,12.6C0.7,16.9,0,17.9,0,18.9
	c0,1,0.7,2,1.6,2.4c0.4,3.1,1.5,5.9,3.2,8.3l-4.4,6.2c-0.4,0.6-0.3,1.4,0.3,1.8c0.2,0.1,0.4,0.2,0.7,0.2c0.4,0,0.8-0.2,1-0.5l4-5.6
	c0.7,0.8,1.6,1.6,2.4,2.2c-0.2,1,0.3,2.1,1.2,2.6c0.4,0.2,0.9,0.3,1.3,0.3c0.2,0,0.5,0,0.7-0.1c0.3-0.1,0.6-0.2,0.9-0.4
	c2.3,1,4.7,1.5,7.3,1.5c2.6,0,5.1-0.5,7.3-1.5c0.4,0.3,0.9,0.5,1.5,0.5c0.4,0,0.9-0.1,1.4-0.3c0.9-0.5,1.4-1.6,1.2-2.6
	c0.9-0.7,1.7-1.5,2.5-2.3l4,5.7c0.2,0.3,0.6,0.5,1,0.5c0.3,0,0.5-0.1,0.8-0.3C40.6,37.1,40.7,36.3,40.3,35.7z M20.3,35.3
	c-4.9,0-9.4-2.2-12.4-5.7l8.9-12.5c1-0.1,1.7-1,1.7-2c0-1.1-0.9-2-2-2s-2,0.9-2,2c0,0.2,0,0.4,0.1,0.6L6.3,27.4
	c-1.5-2.5-2.4-5.4-2.4-8.5c0-9.1,7.4-16.4,16.4-16.4c8.5,0,15.6,6.6,16.3,15c0,0,0,0.1,0,0.1c0,0.1,0,0.1,0,0.2
	c0,0.4,0.1,0.7,0.1,1.1c0,0.4,0,0.7-0.1,1.1c0,0.1,0,0.1,0,0.2c0,0,0,0.1,0,0.1c-0.2,2.5-1,4.9-2.3,7l-8.3-11.8c0-0.1,0-0.3,0-0.4
	c0-1.1-0.9-2-2-2c-1.1,0-2,0.9-2,2c0,1.1,0.9,1.9,1.9,2l8.7,12.5C29.7,33.1,25.3,35.3,20.3,35.3z"/>
</svg>
