<?xml version="1.0" encoding="utf-8"?>
<!-- Generator: Adobe Illustrator 18.0.0, SVG Export Plug-In . SVG Version: 6.00 Build 0)  -->
<!DOCTYPE svg PUBLIC "-//W3C//DTD SVG 1.1//EN" "http://www.w3.org/Graphics/SVG/1.1/DTD/svg11.dtd">
<svg version="1.1" id="Layer_1" xmlns="http://www.w3.org/2000/svg" xmlns:xlink="http://www.w3.org/1999/xlink" x="0px" y="0px"
	 viewBox="0 0 225 179.8" enable-background="new 0 0 225 179.8" xml:space="preserve">
<g>
	<g>
		<path fill="#878E9A" d="M31.6,150.8c4.1,0,7.4-3.3,7.4-7.3s-3.3-7.3-7.4-7.3c-4.1,0-7.4,3.3-7.4,7.3S27.5,150.8,31.6,150.8z
			 M31.6,163c10.9,0,19.8-8.8,19.8-19.6c0-10.8-8.9-19.6-19.8-19.6c-10.9,0-19.8,8.8-19.8,19.6C11.7,154.2,20.6,163,31.6,163z
			 M31.6,126.4c9.6,0,17.4,7.7,17.4,17.1c0,9.4-7.8,17.1-17.4,17.1c-9.6,0-17.4-7.7-17.4-17.1C14.2,134,22,126.4,31.6,126.4z
			 M0,179.8h63.2V85.1H0V179.8z M59.1,87.9c1.1,0,1.9,0.8,1.9,1.9c0,1-0.9,1.9-1.9,1.9c-1.1,0-1.9-0.8-1.9-1.9
			C57.2,88.8,58,87.9,59.1,87.9z M59.1,173.3c1.1,0,1.9,0.8,1.9,1.9c0,1-0.9,1.9-1.9,1.9c-1.1,0-1.9-0.8-1.9-1.9
			C57.2,174.1,58,173.3,59.1,173.3z M31.6,92.8c5.1,0,9.3,4.1,9.3,9.1c0,5-4.2,9.1-9.3,9.1c-5.1,0-9.3-4.1-9.3-9.1
			C22.3,96.9,26.4,92.8,31.6,92.8z M31.6,119.6c13.4,0,24.2,10.7,24.2,23.9c0,13.2-10.9,23.9-24.2,23.9c-13.4,0-24.2-10.7-24.2-23.9
			C7.3,130.3,18.2,119.6,31.6,119.6z M4.1,87.9c1,0,1.9,0.8,1.9,1.9c0,1-0.9,1.9-1.9,1.9c-1.1,0-1.9-0.8-1.9-1.9
			C2.2,88.8,3,87.9,4.1,87.9z M4.1,173.3c1,0,1.9,0.8,1.9,1.9c0,1-0.9,1.9-1.9,1.9c-1.1,0-1.9-0.8-1.9-1.9
			C2.2,174.1,3,173.3,4.1,173.3z M31.6,105.4c1.9,0,3.4-1.5,3.4-3.4c0-1.9-1.5-3.4-3.4-3.4c-1.9,0-3.4,1.5-3.4,3.4
			C28.1,103.8,29.7,105.4,31.6,105.4z M112.8,30.4c-8.1,5-10.7,15.6-5.7,23.7c4.9,8.2,15.5,10.7,23.6,5.8c8.1-5,10.7-15.6,5.8-23.7
			C131.5,28.1,120.9,25.5,112.8,30.4z M200.9,134.3L197.6,99c0-3.3-0.9-15.3-13.5-31.7c-14.1-18.4-27.2-19.2-30.9-19
			c-7.6,0.4-13.6,6.7-13.8,14.2h0l0,0.5c0,0.2,0,0.4,0,0.6c0,0,0,0,0,0.1l0.3,28.6l-13.7,2.9c-0.8-0.4-1.8-0.2-2.8,0.2L75,56.5
			c1.4-2.3,4.8-6.5,9.5-4.1c6.4,3.2,7.7-2.7,1.1-8c-7.1-5.7-21.6-7.5-23.2-13.7c-1.6-6.2-14-33.3-35.2-5.7
			c-21.2,27.6,8,32.9,14.4,32.8c6.4,0,10.3,9.1,14.3,13.6c3.9,4.5,10.1,2.5,5.4-2.9c-3.9-4.5,0.5-9.3,2.2-10.9l53,39.5l-1.5,0.3
			l3,14.3l10.8-2.3c0.5,0.6,0.9,1.3,1.2,2.2c0.2,1,0.8,1.9,1.3,2.3c1.5,1.1,3.5,0.9,4.6-0.6c0.9-1.1,0.9-2.6,0.2-3.7
			c0,0-0.4-0.6-1-1.5l13.3-2.9c3.3-0.7,5.7-3.7,5.7-7.1L154,77.4c0.2,0,0.4,0,0.6,0c0.2,0,6.4,7.6,6.5,7.7
			c6.7,8.8,7.5,14.2,7.5,14.4L152.8,128c-0.7,1.3-1.1,2.8-1.1,4.3l-1,47.6h18.1l0.9-45l11.1-20l2.3,24.6c0.2,2,1.1,3.9,2.5,5.4
			l26.3,27.3l13-12.7L200.9,134.3z M39.2,39.3l-3.4-2.6l5.6-7.3l3.4,2.6L39.2,39.3z M45.8,44.4l-0.9-0.7l5.6-7.3l0.9,0.7L45.8,44.4z
			 M51.9,49.2L51,48.5l5.6-7.3l0.9,0.7L51.9,49.2z M58,53.9l-0.9-0.7l5.6-7.3l0.9,0.7L58,53.9z M85.3,22.4c0.5-0.5,1.1-1.1,1.7-1.7
			c0.6-0.5,1.3-1,2-1.6c0.7-0.6,1.5-1.2,2.3-1.8c0.8-0.7,1.8-1.2,2.7-1.9c1-0.6,2-1.3,3.1-2c1.1-0.6,2.3-1.2,3.5-1.8
			c0.6-0.3,1.2-0.6,1.8-1c0.6-0.3,1.3-0.5,1.9-0.8c1.3-0.5,2.7-1.1,4-1.6c2.8-0.8,5.7-1.9,8.8-2.3c3.1-0.7,6.2-0.9,9.4-1.2
			c3.2,0,6.4-0.1,9.5,0.3c3.2,0.2,6.2,1,9.2,1.5c1.5,0.4,2.9,0.9,4.3,1.3c0.7,0.2,1.4,0.4,2.1,0.6c0.7,0.3,1.3,0.5,2,0.8
			c1.3,0.5,2.6,1.1,3.8,1.6c1.2,0.6,2.3,1.2,3.4,1.8c2.2,1.1,4.1,2.4,5.7,3.5c0.8,0.6,1.6,1.1,2.3,1.6c0.7,0.6,1.3,1.1,1.8,1.5
			c2.2,1.9,3.5,2.9,3.5,2.9S173,21,170.9,19c-0.5-0.5-1.1-1.1-1.7-1.7c-0.7-0.6-1.4-1.1-2.2-1.8c-1.6-1.3-3.3-2.8-5.5-4.1
			c-1.1-0.7-2.2-1.4-3.3-2.1c-1.2-0.6-2.4-1.3-3.7-1.9c-0.6-0.3-1.3-0.7-2-1c-0.7-0.3-1.4-0.6-2.1-0.9c-1.4-0.6-2.9-1.1-4.3-1.7
			c-3.1-0.8-6.2-2-9.5-2.5c-3.3-0.8-6.7-0.9-10.1-1.3c-3.4,0-6.9-0.1-10.2,0.4c-3.4,0.2-6.6,1.1-9.8,1.7c-1.6,0.5-3.1,0.9-4.6,1.4
			c-0.7,0.2-1.5,0.4-2.2,0.7C99,4.5,98.3,4.8,97.6,5c-1.4,0.6-2.7,1.1-4,1.7C92.3,7.4,91.1,8,90,8.7c-1.1,0.7-2.3,1.2-3.3,1.9
			c-1,0.7-2,1.4-2.9,2c-0.9,0.6-1.8,1.2-2.6,1.8c-0.7,0.6-1.3,1.1-1.9,1.5c-2.2,1.9-3.5,2.9-3.5,2.9l6.2,6.9
			C82,25.6,83.2,24.5,85.3,22.4z"/>
	</g>
</g>
</svg>
