<?xml version="1.0" encoding="utf-8"?>
<!-- Generator: Adobe Illustrator 18.0.0, SVG Export Plug-In . SVG Version: 6.00 Build 0)  -->
<!DOCTYPE svg PUBLIC "-//W3C//DTD SVG 1.1//EN" "http://www.w3.org/Graphics/SVG/1.1/DTD/svg11.dtd">
<svg version="1.1" id="Layer_1" xmlns="http://www.w3.org/2000/svg" xmlns:xlink="http://www.w3.org/1999/xlink" x="0px" y="0px"
	 viewBox="0 0 386.7 94.5" enable-background="new 0 0 386.7 94.5" xml:space="preserve">
<path fill="#FFFFFF" d="M50.1,92.5c-8.7,0-17.8-0.1-26.8-1c-2.8-0.3-4.7-1.7-5.8-4.2c-2.3-5-4.1-10.2-5.9-15.4
	c-3.4-10-6.5-20.1-8.9-30.4c-0.9-3.7-0.1-6.5,2.8-9c7.8-6.8,16-13.1,24.4-19.1c4.2-3,8.6-5.8,12.9-8.7c3.1-2,5.9-2,9,0
	c7.5,4.8,10.3,6.5,13.1,8.7c3.3,2.6,21.4,16.5,24.7,19.3c2.7,2.3,3.4,4.9,2.6,8.3c-2.6,11.2-6,22.1-9.7,32.9
	c-1.5,4.4-3.2,8.7-4.9,13c-1.2,2.8-3.1,4.3-6.1,4.6C64.5,92.2,57.5,92.4,50.1,92.5z"/>
<g>
	<g>
		<path fill="#BF0D3E" d="M91.1,30c-6.9-6.5-14.5-12.3-22.2-17.9C63.6,8.3,58.2,4.6,52.4,1.4c-3.2-1.8-6.4-1.8-9.6-0.1
			c-0.5,0.3-1,0.5-1.5,0.8c-5.9,3.3-11.4,7.1-16.8,11.1C17.2,18.4,10.1,23.8,3.6,30C1.4,32-0.3,34.4,0,37.6
			c-0.1,1.3,0.1,2.5,0.3,3.7c1,5.4,2.4,10.7,4,16c2.9,9.9,6.1,19.7,10.3,29.1c1.5,3.5,3.9,5.9,7.8,6.5c1.2,0.2,2.3,0.4,3.5,0.5
			c6.3,0.6,12.6,0.8,19,1c3.5,0.1,7.1-0.1,10.6-0.1c5.5-0.1,10.9-0.4,16.3-1.1c3.1-0.4,5.6-1.9,7.1-4.7c0.7-1.2,1.3-2.5,1.9-3.8
			C86.6,71,91,56.9,94.4,42.4c0.4-1.7,0.6-3.3,0.6-5.1C94.9,34.2,93.2,32,91.1,30z M90,41.1c-2.5,10.6-5.7,20.9-9.3,31.1
			c-1.4,4.1-3,8.2-4.7,12.3c-1.1,2.6-2.9,4.1-5.8,4.4c-6.1,0.6-12.1,0.8-18.5,0.9l0.1-22.2c0-0.4-0.3-0.6-0.6-0.6c0,0,0,0,0,0
			c-0.3,0-0.6,0.3-0.6,0.6l-0.1,22.2c-0.2,0-0.3,0-0.5,0c-0.7,0-1.4,0-2.1,0l0-15.1c0-0.4-0.3-0.6-0.6-0.6c-0.3,0-0.6,0.3-0.6,0.6
			l0,15.1c-0.9,0-1.8,0-2.6,0L44,67.5c0-0.4-0.3-0.6-0.6-0.6c0,0,0,0,0,0c-0.3,0-0.6,0.3-0.6,0.6l-0.1,22.2
			c-6-0.1-12.1-0.3-18.1-0.9c-2.7-0.3-4.4-1.6-5.5-4c-2.1-4.8-3.9-9.7-5.5-14.6c-3.2-9.5-6.1-19.1-8.4-28.8c-0.8-3.5,0-6.1,2.7-8.5
			c7.4-6.5,15.2-12.3,23.2-18c4-2.8,8.1-5.5,12.3-8.2c2.9-1.9,5.6-1.8,8.5,0c9.2,5.7,17.9,12.2,26.4,18.9c3.2,2.5,6.2,5.1,9.2,7.7
			C90,35.4,90.7,37.9,90,41.1z M84.2,34.4C81.4,32,65.7,19.8,62.8,17.6c-2.4-1.9-4.8-3.4-11.3-7.6c-2.7-1.7-5.1-1.7-7.8,0
			c-3.8,2.4-7.6,4.9-11.3,7.5C25,22.7,17.8,28.1,11.1,34c-2.5,2.2-3.2,4.6-2.4,7.8c2.1,9,4.8,17.7,7.7,26.5
			c1.5,4.5,3.1,9.1,5.1,13.4c1,2.2,2.6,3.4,5,3.7c4.1,0.4,8.2,0.6,12.3,0.8l0-10.4c0-0.2-0.1-0.5-0.2-0.6L34.7,71
			c-0.1-0.2-0.2-0.4-0.2-0.6l-2.9-43c0-0.7,0.6-1.2,1.3-1L47,31.4c0.2,0.1,0.4,0.1,0.6,0l14.2-4.8c0.6-0.2,1.3,0.3,1.3,1L60,70.5
			c0,0.2-0.1,0.4-0.2,0.6L56,75.2c-0.2,0.2-0.2,0.4-0.3,0.6l0,10.4c4.3-0.1,8.5-0.3,12.6-0.7c2.6-0.3,4.3-1.6,5.3-4
			c1.6-3.7,3-7.5,4.3-11.3c3.3-9.4,6.3-18.9,8.5-28.6C87.1,38.7,86.5,36.3,84.2,34.4z M26.8,39.5l-0.3-5.1c0-0.3,0.2-0.7,0.6-0.7
			l1.9-0.1c0.3,0,0.7,0.2,0.7,0.6l0.3,5.1c0,0.3-0.2,0.7-0.6,0.7l-1.9,0.1C27.1,40.1,26.8,39.8,26.8,39.5z M27.6,51.1L27.2,46
			c0-0.3,0.2-0.7,0.6-0.7l1.9-0.1c0.3,0,0.7,0.2,0.7,0.6l0.3,5.1c0,0.3-0.2,0.7-0.6,0.7l-1.9,0.1C27.9,51.7,27.6,51.4,27.6,51.1z
			 M30.9,63.1L29,63.2c-0.3,0-0.7-0.2-0.7-0.6L28,57.6c0-0.3,0.2-0.7,0.6-0.7l1.9-0.1c0.3,0,0.7,0.2,0.7,0.6l0.3,5.1
			C31.5,62.8,31.3,63.1,30.9,63.1z M66.2,62.7c0,0.3-0.3,0.6-0.7,0.6l-1.9-0.1c-0.3,0-0.6-0.3-0.6-0.7l0.4-5.1
			c0-0.3,0.3-0.6,0.7-0.6l1.9,0.1c0.3,0,0.6,0.3,0.6,0.7L66.2,62.7z M67,51.2c0,0.3-0.3,0.6-0.7,0.6l-1.9-0.1
			c-0.3,0-0.6-0.3-0.6-0.7l0.4-5.1c0-0.3,0.3-0.6,0.7-0.6l1.9,0.1c0.3,0,0.6,0.3,0.6,0.7L67,51.2z M67.8,39.6c0,0.3-0.3,0.6-0.7,0.6
			L65.3,40c-0.3,0-0.6-0.3-0.6-0.7l0.4-5.1c0-0.3,0.3-0.6,0.7-0.6l1.9,0.1c0.3,0,0.6,0.3,0.6,0.7L67.8,39.6z M54.5,47.4l-4.6-0.8
			l-2-4.3c-0.1-0.2-0.3-0.7-0.6-0.7c0,0,0,0,0,0c-0.2,0-0.5,0.5-0.6,0.7l-2.1,4.5L40,47.4c-0.2,0-0.4,0.2-0.5,0.4
			c-0.1,0.2,0,0.5,0.2,0.7l3.3,3.3l-0.8,4.6c0,0.2,0.1,0.5,0.3,0.6c0.2,0.1,0.5,0.2,0.7,0.1l4.1-2.2l4.1,2.2c0.1,0,0.2,0.1,0.3,0.1
			c0.1,0,0.3,0,0.4-0.1c0.2-0.1,0.3-0.4,0.3-0.6l-0.8-4.6l3.3-3.2c0.2-0.2,0.2-0.4,0.2-0.7C54.9,47.6,54.7,47.4,54.5,47.4z
			 M50.3,51.1c-0.1,0.1-0.2,0.4-0.2,0.6l0.6,3.6l-3.3-1.7c-0.1,0-0.2-0.1-0.3-0.1c-0.1,0-0.2,0-0.3,0.1l-3.3,1.7l0.6-3.6
			c0-0.2,0-0.4-0.2-0.6l-2.6-2.6l3.7-0.5c0.2,0,0.4-0.2,0.5-0.3l1.6-3.3l1.6,3.3c0.1,0.2,0.3,0.3,0.5,0.3l3.7,0.5L50.3,51.1z"/>
	</g>
</g>
<g>
	<g>
		<path fill="#212730" d="M136.4,32.4h-3.8c-1.3,0-1.5,0.9-1.8,1.3l-5.4,9.7l-5.4-9.7c-0.3-0.5-0.5-1.3-1.8-1.3h-3.9
			c-0.9,0-1.1,0.4-1.1,1.1v23.6c0,0.9,0.4,1.1,1.1,1.1h3.9c0.7,0,1.1-0.2,1.1-1.1V43.8l4,6.9c0.2,0.3,0.5,0.8,1.1,0.8h2
			c0.6,0,0.9-0.5,1.1-0.8l3.9-6.9v13.3c0,0.9,0.4,1.1,1.1,1.1h3.8c0.7,0,1.1-0.2,1.1-1.1V33.5C137.6,32.8,137.3,32.4,136.4,32.4z
			 M162.6,32.4h-3.9c-0.7,0-1.1,0.2-1.1,1.1v15.9c0,2.5-1.6,3.9-4.2,3.9c-2.6,0-4.2-1.4-4.2-3.9V33.6c0-0.9-0.4-1.1-1.1-1.1h-3.9
			c-0.7,0-1.1,0.2-1.1,1.1v16.8c0,6.2,5.7,8.5,10.3,8.5c4.7,0,10.4-2.3,10.4-8.5V33.6C163.8,32.7,163.3,32.4,162.6,32.4z
			 M181.4,43.3c-1.6-0.6-7.3-1.5-7.3-3.9c0-1.8,2.2-2.3,3.4-2.3c1.2,0,2.6,0.4,3.3,1.1c0.5,0.5,0.7,0.8,0.8,1.2
			c0.2,0.5,0.3,1.1,1.1,1.1h3.8c0.9,0,1.1-0.2,1.1-1.1c0-5.2-5.4-7.5-10.4-7.5c-4.9,0.2-9.5,2.7-9.5,7.8c0,5,3.6,6.6,7.6,7.8
			c3.3,1.1,6.8,1.1,6.8,3.3c0,2.2-1.7,2.7-3.8,2.7c-1.5,0-3.1-0.4-3.8-1.3c-0.5-0.6-0.7-1.1-0.7-1.6c-0.1-1-0.5-1.1-1.4-1.1h-3.8
			c-0.9,0-1.1,0.2-1.1,1.1c0,5.5,5.6,8.3,10.5,8.3c6,0,10.4-2.7,10.4-8.2C188.4,45.3,184.2,44.1,181.4,43.3z M204.2,52.9h-2.5v-15
			h2.4c0.9,0,1.1-0.4,1.1-1.1v-3.2c0-0.7-0.2-1.1-1.1-1.1h-10.9c-0.9,0-1.1,0.4-1.1,1.1v3.2c0,0.7,0.2,1.1,1.1,1.1h2.4v15h-2.5
			c-0.9,0-1.1,0.4-1.1,1.1v3.1c0,0.7,0.2,1.1,1.1,1.1h11.1c0.9,0,1.1-0.4,1.1-1.1V54C205.3,53.3,205.1,52.9,204.2,52.9z M220.1,37.3
			c2.1,0,3.2,0.6,4,1.9c0.3,0.5,0.4,1.2,1.2,1.2h3.8c0.9,0,1.2-0.2,1.2-1.1c-0.5-5-5.3-7.5-10.2-7.5c-4.7,0-10.5,2.7-10.5,8.9V50
			c0,6.2,5.8,8.9,10.5,8.9c4.9,0,10.2-3.2,10.2-8.2c0-0.9-0.3-1.3-1.2-1.3h-3.8c-0.9,0-0.9,0.6-1.1,1.4c-0.3,1.9-2,2.7-4.1,2.7
			c-2.6,0-4.4-1.4-4.4-3.9v-8.2C215.7,38.8,217.5,37.3,220.1,37.3z M264.5,52.8H252v-5.2h10.5c0.9,0,1.1-0.4,1.1-1.1v-3.1
			c0-0.7-0.2-1.1-1.1-1.1H252V38h11.8c0.9,0,1.1-0.4,1.1-1.1v-3.3c0-0.7-0.2-1.1-1.1-1.1h-16.9c-0.9,0-1.1,0.4-1.1,1.1v23.6
			c0,0.7,0.2,1.1,1.1,1.1h17.6c0.9,0,1.1-0.4,1.1-1.1v-3.2C265.6,53.2,265.4,52.8,264.5,52.8z M289,32.4h-4.6
			c-0.8,0-1.1,0.3-1.6,1.1l-3.9,6.3l-3.9-6.3c-0.5-0.8-0.8-1.1-1.6-1.1h-4.6c-0.7,0-0.8,0.7-0.6,1.1l7.1,11.5l-7,12
			c-0.3,0.5-0.1,1.2,0.5,1.2h4.5c0.9,0,1.2-0.1,1.7-1.1l3.9-7l3.9,7c0.5,1,0.9,1.1,1.7,1.1h4.5c0.6,0,0.8-0.7,0.5-1.2l-6.9-12
			l7.1-11.5C289.9,33.1,289.7,32.4,289,32.4z M303.3,32.4h-8.8c-0.9,0-1.1,0.4-1.1,1.1v23.6c0,0.9,0.4,1.1,1.1,1.1h3.9
			c0.7,0,1.1-0.2,1.1-1.1v-6.5h3.8c6.7,0,10.3-3.6,10.3-9.1C313.5,36.1,310,32.4,303.3,32.4z M303.2,45.3h-3.8V38h3.8
			c3.1,0,4.4,1.6,4.4,3.7C307.6,43.6,306.3,45.3,303.2,45.3z M336.6,52.8h-12.5v-5.2h10.5c0.9,0,1.1-0.4,1.1-1.1v-3.1
			c0-0.7-0.2-1.1-1.1-1.1h-10.5V38H336c0.9,0,1.1-0.4,1.1-1.1v-3.3c0-0.7-0.2-1.1-1.1-1.1h-16.9c-0.9,0-1.1,0.4-1.1,1.1v23.6
			c0,0.7,0.2,1.1,1.1,1.1h17.6c0.9,0,1.1-0.4,1.1-1.1v-3.2C337.8,53.2,337.5,52.8,336.6,52.8z M358.1,49c2.4-0.8,5.4-3.7,5.4-7.8
			c0-2.5-0.8-4.8-2.3-6.2c-1.6-1.6-3.5-2.5-7.8-2.5h-9.9c-0.9,0-1.1,0.4-1.1,1.1v23.5c0,0.9,0.4,1.1,1.1,1.1h3.9
			c0.7,0,1.1-0.2,1.1-1.1V38h5.2c2,0,3.6,1.3,3.6,3.3c0,1.8-1.8,3.2-3.7,3.2h-0.8c-0.9,0-1.1,0.4-1.1,1.1v3.1c0,1.1,0.1,1.5,0.4,2
			l4.2,6.3c0.5,0.8,1,1.2,2,1.2h4.6c0.7,0,0.9-0.7,0.6-1.3L358.1,49z M386,32.4h-18.2c-0.9,0-1.1,0.4-1.1,1.1v3.3
			c0,0.7,0.2,1.1,1.1,1.1h6v19.2c0,0.9,0.4,1.1,1.1,1.1h3.9c0.7,0,1.1-0.2,1.1-1.1V38h6c0.9,0,1.1-0.4,1.1-1.1v-3.3
			C387.2,32.9,386.9,32.4,386,32.4z"/>
	</g>
</g>
<g>
	<g>
		<path fill="#79818E" d="M118.1,71.1c0.5-0.2,0.9-0.4,1.2-0.8c0.3-0.4,0.4-0.9,0.4-1.4c0-0.9-0.3-1.5-0.9-2
			c-0.6-0.5-1.4-0.7-2.5-0.7h-3.1v10.2h3.5c1.1,0,1.9-0.3,2.5-0.8c0.6-0.5,0.9-1.2,0.9-2.1c0-0.6-0.2-1.1-0.6-1.6
			C119.2,71.5,118.7,71.2,118.1,71.1z M114.2,66.9h2.2c0.8,0,1.5,0.2,1.9,0.5c0.4,0.3,0.6,0.8,0.6,1.5c0,0.6-0.2,1.1-0.6,1.4
			c-0.4,0.3-1,0.5-1.7,0.5h-2.4V66.9z M118.6,75.2c-0.4,0.4-1,0.6-1.8,0.6h-2.6v-4.2h2.7c0.7,0,1.3,0.2,1.8,0.6
			c0.4,0.4,0.6,0.9,0.6,1.5C119.3,74.3,119.1,74.8,118.6,75.2z M123.1,70.2c0.4-0.5,1-0.8,1.8-0.8c0.6,0,1.1,0.2,1.5,0.5
			c0.4,0.4,0.6,0.8,0.7,1.4h0.8c0-0.8-0.3-1.5-0.9-2c-0.6-0.5-1.3-0.7-2.1-0.7c-0.7,0-1.3,0.2-1.8,0.5c-0.5,0.3-0.9,0.8-1.1,1.3
			c-0.3,0.6-0.4,1.2-0.4,2v0.3c0,1.2,0.3,2.1,0.9,2.8c0.6,0.7,1.4,1,2.4,1c0.5,0,1-0.1,1.5-0.3c0.5-0.2,0.8-0.5,1.1-0.9
			c0.3-0.4,0.4-0.8,0.4-1.3h-0.8c0,0.5-0.3,1-0.7,1.3c-0.4,0.3-0.9,0.5-1.5,0.5c-0.8,0-1.4-0.3-1.8-0.8c-0.4-0.5-0.6-1.3-0.6-2.3
			v-0.2C122.5,71.6,122.7,70.8,123.1,70.2z M132.5,68.7c-0.6,0-1.2,0.2-1.7,0.5c-0.5,0.3-0.9,0.8-1.2,1.4c-0.3,0.6-0.4,1.2-0.4,2
			v0.3c0,0.7,0.1,1.3,0.4,1.9c0.3,0.6,0.7,1,1.2,1.3c0.5,0.3,1.1,0.5,1.8,0.5c1.2,0,2.1-0.4,2.7-1.3l-0.5-0.4
			c-0.3,0.4-0.6,0.6-1,0.8c-0.4,0.2-0.8,0.2-1.2,0.2c-0.8,0-1.4-0.3-1.9-0.9c-0.5-0.6-0.8-1.3-0.8-2.2v-0.2h5.5v-0.5
			c0-1.1-0.3-2-0.8-2.6C134.2,69,133.4,68.7,132.5,68.7z M134.7,72H130c0.1-0.8,0.4-1.4,0.8-1.9c0.4-0.5,1-0.7,1.6-0.7
			c0.6,0,1.2,0.2,1.6,0.7C134.5,70.6,134.7,71.2,134.7,72L134.7,72z M145.1,75.3l-3.1-6.5h-1.1v7.6h0.9v-6.4l3,6.4h0.6l3-6.2v6.2
			h0.9v-7.6h-1.1L145.1,75.3z M154,75.2l-2.4-6.4h-0.9l2.9,7.5l-0.4,1c-0.2,0.5-0.4,0.8-0.7,1.1c-0.3,0.2-0.6,0.3-1,0.3l-0.4,0
			l0,0.7c0.2,0.1,0.5,0.1,0.7,0.1c0.9,0,1.5-0.5,2-1.4l0.2-0.4l3.3-8.9h-0.9L154,75.2z M162.5,72.5c0.4-0.2,0.8-0.4,1-0.7
			c0.2-0.3,0.3-0.6,0.3-1c0-0.7-0.2-1.2-0.7-1.6c-0.5-0.4-1.2-0.6-2.1-0.6c-0.8,0-1.5,0.2-2,0.6c-0.6,0.4-0.8,0.9-0.8,1.6h0.9
			c0-0.4,0.2-0.8,0.6-1.1c0.4-0.3,0.9-0.4,1.4-0.4c0.6,0,1.1,0.1,1.4,0.4c0.3,0.2,0.5,0.6,0.5,1.1c0,0.9-0.6,1.3-1.8,1.4h-1.3v0.7
			h1.2c0.7,0,1.2,0.1,1.6,0.3c0.3,0.2,0.5,0.6,0.5,1.1c0,0.5-0.2,0.8-0.6,1.1c-0.4,0.3-0.9,0.4-1.5,0.4c-0.6,0-1.1-0.2-1.5-0.5
			c-0.4-0.3-0.6-0.7-0.6-1.1h-0.9c0,0.7,0.3,1.2,0.9,1.7c0.6,0.4,1.3,0.6,2.1,0.6c0.9,0,1.6-0.2,2.1-0.6c0.5-0.4,0.8-0.9,0.8-1.6
			C164,73.4,163.5,72.8,162.5,72.5z M170.6,71.9c-0.4-0.2-0.9-0.3-1.5-0.3h-2.2v-2.8H166v7.6h3.1c0.9,0,1.6-0.2,2.1-0.7
			c0.5-0.4,0.8-1,0.8-1.8c0-0.5-0.1-0.9-0.3-1.3C171.4,72.4,171,72.1,170.6,71.9z M170.5,75.3c-0.4,0.3-0.8,0.5-1.5,0.5h-2.2v-3.4
			h2.3c0.6,0,1.1,0.2,1.4,0.5c0.3,0.3,0.5,0.7,0.5,1.2C171.1,74.6,170.9,75,170.5,75.3z M173.7,76.5h0.9v-7.6h-0.9V76.5z
			 M182.9,68.8h-1.1l-2.8,3.4h-1.2v-3.4H177v7.6h0.9V73h1.2l3.1,3.5h1.1l-3.5-3.9L182.9,68.8z M190.1,71.1c0-0.8-0.3-1.4-0.8-1.8
			c-0.5-0.4-1.2-0.6-2-0.6c-0.8,0-1.5,0.2-2.1,0.7c-0.6,0.4-0.9,1-0.9,1.6l0.9,0c0-0.4,0.2-0.8,0.6-1.1c0.4-0.3,0.9-0.5,1.5-0.5
			c0.7,0,1.2,0.2,1.5,0.5c0.3,0.3,0.5,0.7,0.5,1.3V72h-1.6c-1.1,0-2,0.2-2.6,0.6c-0.6,0.4-0.9,1-0.9,1.8c0,0.6,0.2,1.1,0.7,1.5
			c0.5,0.4,1.1,0.6,1.8,0.6c0.5,0,1-0.1,1.5-0.3c0.5-0.2,0.8-0.5,1.1-0.9c0,0.5,0.1,0.8,0.2,1.1h0.9v-0.1c-0.2-0.4-0.2-0.9-0.2-1.7
			V71.1z M189.2,74.3c-0.2,0.5-0.5,0.8-1,1.1c-0.5,0.3-1,0.4-1.5,0.4c-0.5,0-0.9-0.1-1.3-0.4c-0.3-0.3-0.5-0.6-0.5-1.1
			c0-0.5,0.2-0.9,0.7-1.2c0.5-0.3,1.2-0.5,2-0.5h1.5V74.3z M193.3,72.5c-0.1,1.2-0.2,2-0.4,2.5c-0.2,0.5-0.6,0.7-1.1,0.7l-0.3,0v0.7
			h0.3c0.5,0,0.9-0.1,1.2-0.4c0.3-0.3,0.5-0.7,0.7-1.2c0.2-0.6,0.3-1.4,0.3-2.4l0.1-2.8h3.2v6.9h0.9v-7.6h-4.9L193.3,72.5z
			 M205.3,71.9c-0.4-0.2-0.9-0.3-1.5-0.3h-2.2v-2.8h-0.9v7.6h3.1c0.9,0,1.6-0.2,2.1-0.7c0.5-0.4,0.8-1,0.8-1.8
			c0-0.5-0.1-0.9-0.3-1.3C206.1,72.4,205.8,72.1,205.3,71.9z M205.3,75.3c-0.4,0.3-0.8,0.5-1.5,0.5h-2.2v-3.4h2.3
			c0.6,0,1.1,0.2,1.4,0.5c0.3,0.3,0.5,0.7,0.5,1.2C205.8,74.6,205.6,75,205.3,75.3z M213.6,72.3h-4.2v-3.4h-0.9v7.6h0.9V73h4.2v3.5
			h0.9v-7.6h-0.9V72.3z M219.7,68.7c-0.7,0-1.3,0.2-1.8,0.5c-0.5,0.3-0.9,0.8-1.2,1.4c-0.3,0.6-0.4,1.2-0.4,2v0.2
			c0,1.2,0.3,2.1,1,2.8c0.6,0.7,1.5,1.1,2.5,1.1c0.7,0,1.3-0.2,1.8-0.5c0.5-0.3,0.9-0.8,1.2-1.4c0.3-0.6,0.4-1.3,0.4-2v-0.2
			c0-1.2-0.3-2.1-1-2.8C221.6,69.1,220.8,68.7,219.7,68.7z M222.3,72.7c0,1-0.2,1.7-0.7,2.3c-0.5,0.6-1.1,0.9-1.9,0.9
			c-0.8,0-1.4-0.3-1.9-0.9c-0.5-0.6-0.7-1.3-0.7-2.2v-0.2c0-1,0.2-1.7,0.7-2.3c0.5-0.6,1.1-0.9,1.9-0.9c0.5,0,1,0.1,1.4,0.4
			c0.4,0.3,0.7,0.6,0.9,1.1c0.2,0.5,0.3,1,0.3,1.6V72.7z M227.8,68.7c-0.6,0-1.2,0.2-1.7,0.5c-0.5,0.3-0.9,0.8-1.2,1.4
			c-0.3,0.6-0.4,1.2-0.4,2v0.3c0,0.7,0.1,1.3,0.4,1.9c0.3,0.6,0.7,1,1.2,1.3c0.5,0.3,1.1,0.5,1.8,0.5c1.2,0,2.1-0.4,2.7-1.3
			l-0.5-0.4c-0.3,0.4-0.6,0.6-1,0.8c-0.4,0.2-0.8,0.2-1.2,0.2c-0.8,0-1.4-0.3-1.9-0.9c-0.5-0.6-0.8-1.3-0.8-2.2v-0.2h5.5v-0.5
			c0-1.1-0.3-2-0.8-2.6C229.5,69,228.7,68.7,227.8,68.7z M230,72h-4.6c0.1-0.8,0.4-1.4,0.8-1.9c0.4-0.5,1-0.7,1.6-0.7
			c0.6,0,1.2,0.2,1.6,0.7C229.8,70.6,230,71.2,230,72L230,72z M239.1,68.7c-0.7,0-1.3,0.2-1.8,0.5c-0.5,0.3-0.9,0.8-1.2,1.4
			c-0.3,0.6-0.4,1.2-0.4,2v0.2c0,1.2,0.3,2.1,1,2.8c0.6,0.7,1.5,1.1,2.5,1.1c0.7,0,1.3-0.2,1.8-0.5c0.5-0.3,0.9-0.8,1.2-1.4
			c0.3-0.6,0.4-1.3,0.4-2v-0.2c0-1.2-0.3-2.1-1-2.8C240.9,69.1,240.1,68.7,239.1,68.7z M241.7,72.7c0,1-0.2,1.7-0.7,2.3
			c-0.5,0.6-1.1,0.9-1.9,0.9c-0.8,0-1.4-0.3-1.9-0.9c-0.5-0.6-0.7-1.3-0.7-2.2v-0.2c0-1,0.2-1.7,0.7-2.3c0.5-0.6,1.1-0.9,1.9-0.9
			c0.5,0,1,0.1,1.4,0.4c0.4,0.3,0.7,0.6,0.9,1.1c0.2,0.5,0.3,1,0.3,1.6V72.7z M247.4,69.3c-0.6,0-1.1,0.1-1.6,0.4
			c-0.5,0.2-0.8,0.6-1.2,1c0.1-0.9,0.5-1.6,0.9-2.2c0.5-0.5,1.1-0.9,1.9-1c0.7-0.1,1.2-0.2,1.5-0.4c0.3-0.2,0.6-0.4,0.8-0.6
			c0.2-0.3,0.3-0.6,0.3-1h-0.7c0,0.3-0.1,0.6-0.4,0.8c-0.3,0.2-0.8,0.3-1.5,0.5c-1.1,0.2-2,0.7-2.6,1.7c-0.6,0.9-0.9,2.2-0.9,3.8
			v0.7c0,1.1,0.3,2,0.9,2.7c0.6,0.7,1.5,1,2.5,1c0.7,0,1.3-0.2,1.8-0.5c0.5-0.3,0.9-0.7,1.2-1.3c0.3-0.6,0.4-1.2,0.4-1.9v-0.2
			c0-1-0.3-1.9-0.9-2.5C249.2,69.7,248.4,69.3,247.4,69.3z M249.9,72.9c0,0.9-0.2,1.6-0.7,2.1c-0.5,0.5-1.1,0.8-1.9,0.8
			c-0.8,0-1.4-0.3-1.9-0.8c-0.5-0.5-0.7-1.2-0.7-2.1v-0.2c0-0.8,0.2-1.5,0.7-2c0.5-0.5,1.1-0.8,1.9-0.8c0.8,0,1.4,0.3,1.9,0.8
			c0.5,0.5,0.7,1.1,0.7,1.9V72.9z M255.4,68.7c-0.7,0-1.3,0.2-1.8,0.5c-0.5,0.3-0.9,0.8-1.2,1.4c-0.3,0.6-0.4,1.2-0.4,2v0.2
			c0,1.2,0.3,2.1,1,2.8c0.6,0.7,1.5,1.1,2.5,1.1c0.7,0,1.3-0.2,1.8-0.5c0.5-0.3,0.9-0.8,1.2-1.4c0.3-0.6,0.4-1.3,0.4-2v-0.2
			c0-1.2-0.3-2.1-1-2.8C257.2,69.1,256.4,68.7,255.4,68.7z M258,72.7c0,1-0.2,1.7-0.7,2.3c-0.5,0.6-1.1,0.9-1.9,0.9
			c-0.8,0-1.4-0.3-1.9-0.9c-0.5-0.6-0.7-1.3-0.7-2.2v-0.2c0-1,0.2-1.7,0.7-2.3c0.5-0.6,1.1-0.9,1.9-0.9c0.5,0,1,0.1,1.4,0.4
			c0.4,0.3,0.7,0.6,0.9,1.1c0.2,0.5,0.3,1,0.3,1.6V72.7z M263.9,68.7c-1.1,0-1.9,0.4-2.4,1.2l0-1.1h-0.8v10.5h0.9v-3.9
			c0.6,0.7,1.4,1.1,2.4,1.1c0.9,0,1.6-0.3,2.1-1c0.5-0.7,0.8-1.6,0.8-2.8v-0.1c0-1.2-0.3-2.2-0.8-2.9
			C265.5,69,264.8,68.7,263.9,68.7z M265.4,75c-0.4,0.6-1,0.8-1.7,0.8c-0.5,0-1-0.1-1.4-0.3c-0.4-0.2-0.7-0.6-0.9-1v-3.6
			c0.2-0.5,0.5-0.8,0.9-1.1c0.4-0.2,0.8-0.4,1.4-0.4c0.7,0,1.3,0.3,1.7,0.8c0.4,0.6,0.6,1.3,0.6,2.3C266,73.6,265.8,74.5,265.4,75z
			 M271.1,75.2l-2.4-6.4h-0.9l2.9,7.5l-0.4,1c-0.2,0.5-0.4,0.8-0.7,1.1c-0.3,0.2-0.6,0.3-1,0.3l-0.4,0l0,0.7
			c0.2,0.1,0.5,0.1,0.7,0.1c0.9,0,1.5-0.5,2-1.4l0.2-0.4l3.3-8.9h-0.9L271.1,75.2z M281.2,68.8h-4.6l-0.1,2.9
			c-0.1,1.5-0.4,2.7-1,3.5l-0.4,0.5h-0.6l0,2.9h0.8v-2.2h5.8v2.2h0.9v-2.9h-0.8V68.8z M280.3,75.7H276c0.8-0.9,1.2-2.3,1.3-4.1
			l0.1-2h2.9V75.7z M286.6,68.7c-0.7,0-1.3,0.2-1.8,0.5c-0.5,0.3-0.9,0.8-1.2,1.4c-0.3,0.6-0.4,1.2-0.4,2v0.2c0,1.2,0.3,2.1,1,2.8
			c0.6,0.7,1.5,1.1,2.5,1.1c0.7,0,1.3-0.2,1.8-0.5c0.5-0.3,0.9-0.8,1.2-1.4c0.3-0.6,0.4-1.3,0.4-2v-0.2c0-1.2-0.3-2.1-1-2.8
			C288.5,69.1,287.6,68.7,286.6,68.7z M289.2,72.7c0,1-0.2,1.7-0.7,2.3c-0.5,0.6-1.1,0.9-1.9,0.9c-0.8,0-1.4-0.3-1.9-0.9
			c-0.5-0.6-0.7-1.3-0.7-2.2v-0.2c0-1,0.2-1.7,0.7-2.3c0.5-0.6,1.1-0.9,1.9-0.9c0.5,0,1,0.1,1.4,0.4c0.4,0.3,0.7,0.6,0.9,1.1
			c0.2,0.5,0.3,1,0.3,1.6V72.7z M296.5,72.5c0.4-0.1,0.8-0.4,1-0.7c0.2-0.3,0.4-0.6,0.4-1c0-0.7-0.3-1.2-0.8-1.5
			c-0.5-0.3-1.3-0.5-2.3-0.5h-2.8v7.6h3.3c0.9,0,1.6-0.2,2.1-0.6c0.5-0.4,0.8-0.9,0.8-1.6c0-0.4-0.2-0.8-0.5-1.2
			C297.4,72.8,297,72.6,296.5,72.5z M292.8,69.6h2c0.7,0,1.3,0.1,1.6,0.3c0.4,0.2,0.6,0.6,0.6,1c0,0.9-0.7,1.3-2,1.4h-2.2V69.6z
			 M296.8,75.4c-0.3,0.2-0.8,0.4-1.5,0.4h-2.5v-2.8h2.5c0.6,0,1.1,0.1,1.5,0.4c0.3,0.2,0.5,0.6,0.5,1
			C297.3,74.8,297.1,75.1,296.8,75.4z M305.6,71.1c0-0.8-0.3-1.4-0.8-1.8c-0.5-0.4-1.2-0.6-2-0.6c-0.8,0-1.5,0.2-2.1,0.7
			c-0.6,0.4-0.9,1-0.9,1.6l0.9,0c0-0.4,0.2-0.8,0.6-1.1c0.4-0.3,0.9-0.5,1.5-0.5c0.7,0,1.2,0.2,1.5,0.5c0.3,0.3,0.5,0.7,0.5,1.3V72
			h-1.6c-1.1,0-2,0.2-2.6,0.6c-0.6,0.4-0.9,1-0.9,1.8c0,0.6,0.2,1.1,0.7,1.5c0.5,0.4,1.1,0.6,1.8,0.6c0.5,0,1-0.1,1.5-0.3
			c0.5-0.2,0.8-0.5,1.1-0.9c0,0.5,0.1,0.8,0.2,1.1h0.9v-0.1c-0.2-0.4-0.2-0.9-0.2-1.7V71.1z M304.8,74.3c-0.2,0.5-0.5,0.8-1,1.1
			c-0.5,0.3-1,0.4-1.5,0.4c-0.5,0-0.9-0.1-1.3-0.4c-0.3-0.3-0.5-0.6-0.5-1.1c0-0.5,0.2-0.9,0.7-1.2c0.5-0.3,1.2-0.5,2-0.5h1.5V74.3z
			 M313,72.3h-4.2v-3.4H308v7.6h0.9V73h4.2v3.5h0.9v-7.6H313V72.3z M317.1,75.1v-6.3h-0.9v7.6h0.9l4.2-6.3v6.3h0.9v-7.6h-0.9
			L317.1,75.1z M330.3,72.7v-0.5c0-1.1-0.3-2-0.8-2.6c-0.6-0.6-1.3-0.9-2.2-0.9c-0.6,0-1.2,0.2-1.7,0.5c-0.5,0.3-0.9,0.8-1.2,1.4
			c-0.3,0.6-0.4,1.2-0.4,2v0.3c0,0.7,0.1,1.3,0.4,1.9c0.3,0.6,0.7,1,1.2,1.3c0.5,0.3,1.1,0.5,1.8,0.5c1.2,0,2.1-0.4,2.7-1.3
			l-0.5-0.4c-0.3,0.4-0.6,0.6-1,0.8c-0.4,0.2-0.8,0.2-1.2,0.2c-0.8,0-1.4-0.3-1.9-0.9c-0.5-0.6-0.8-1.3-0.8-2.2v-0.2H330.3z
			 M325.6,70.1c0.4-0.5,1-0.7,1.6-0.7c0.6,0,1.2,0.2,1.6,0.7c0.4,0.5,0.6,1.1,0.6,1.8V72h-4.6C324.9,71.2,325.2,70.6,325.6,70.1z"/>
	</g>
</g>
</svg>
