<?xml version="1.0" encoding="utf-8"?>
<!-- Generator: Adobe Illustrator 19.2.0, SVG Export Plug-In . SVG Version: 6.00 Build 0)  -->
<svg version="1.1" id="Layer_1" xmlns="http://www.w3.org/2000/svg" xmlns:xlink="http://www.w3.org/1999/xlink" x="0px" y="0px"
	 viewBox="0 0 36.3 36.3" style="enable-background:new 0 0 36.3 36.3;" xml:space="preserve">
<style type="text/css">
	.st0{fill:#FFFFFF;}
</style>
<path class="st0" d="M32.9,0h-4h-3.4h-5.7h-3.4h-5.6H7.4h-4C1.5,0,0,1.5,0,3.4v29.5c0,1.9,1.5,3.4,3.4,3.4h29.5
	c1.9,0,3.4-1.5,3.4-3.4V3.4C36.3,1.5,34.8,0,32.9,0z M3.4,34c-0.6,0-1.1-0.5-1.1-1.1V3.4c0-0.6,0.5-1.1,1.1-1.1h2.3V21
	c0,0.9,0.8,1.7,1.7,1.7h0.5V34H3.4z M10.2,34V22.7h0.6c0.9,0,1.7-0.8,1.7-1.7V2.3h2.2V21c0,0.9,0.8,1.7,1.7,1.7H17V34H10.2z
	 M19.3,34V22.7h0.5c1,0,1.7-0.8,1.7-1.7V2.3h2.3V21c0,0.9,0.8,1.7,1.7,1.7h0.6V34H19.3z M34,32.9c0,0.6-0.5,1.1-1.1,1.1h-4.5V22.7
	h0.5c1,0,1.7-0.8,1.7-1.7V2.3h2.3c0.6,0,1.1,0.5,1.1,1.1V32.9z"/>
</svg>
