<svg id="Layer_1" data-name="Layer 1" xmlns="http://www.w3.org/2000/svg" viewBox="0 0 17.64392 306.92397"><defs><style>.cls-1{fill:#0dbf69;}.cls-2{fill:#5d6673;}</style></defs><title>setting_1</title><path class="cls-1" d="M7.25371,289.27687a0.65041,0.65041,0,0,0-.5757.4778l-0.3188,1.7466c-0.1547.0582-.3041,0.1215-0.4532,0.1899l-1.4704-1.0109a0.60691,0.60691,0,0,0-.7474.0735l-2.2177,2.2186a0.60641,0.60641,0,0,0-.0675.7468l1.0109,1.4588c-0.0675.1476-.1264,0.3002-0.1837,0.453l-1.7461.3192A0.60691,0.60691,0,0,0,0,296.532v3.137a0.60755,0.60755,0,0,0,.4841.5759l1.7461,0.3185c0.0589,0.1549.1215,0.3069,0.1899,0.4545l-1.0171,1.4572a0.60855,0.60855,0,0,0,.0675.7483l2.2177,2.2179a0.60651,0.60651,0,0,0,.7535.0734L5.906,304.504c0.1497,0.0683.2987,0.1331,0.4532,0.1898l0.3188,1.7459a0.60649,0.60649,0,0,0,.5757.4843h3.1367a0.60706,0.60706,0,0,0,.5759-0.4843l0.3184-1.7459c0.1548-.0582.3042-0.1215,0.4535-0.1898l1.458,1.0107a0.60665,0.60665,0,0,0,.7536-0.0734l2.2177-2.2179a0.60825,0.60825,0,0,0,.0673-0.7483l-1.0107-1.4572c0.0667-.1462.1265-0.2967,0.1837-0.4479l1.752-.3251a0.60661,0.60661,0,0,0,.4841-0.5759v-3.137a0.60609,0.60609,0,0,0-.4841-0.5818l-1.7459-.3192c-0.0565-.152-0.1231-0.3004-0.1898-0.4472l1.0107-1.4646a0.60611,0.60611,0,0,0-.0673-0.7468l-2.2177-2.2186a0.60824,0.60824,0,0,0-.7536-0.0676l-1.458,1.005c-0.1493-.0684-0.2987-0.1317-0.4535-0.1899l-0.3184-1.7466a0.607,0.607,0,0,0-.5759-0.4778H7.25371Zm0.49,1.1766h2.1567l0.2877,1.575a0.60035,0.60035,0,0,0,.3983.4531,5.89934,5.89934,0,0,1,.9558.3985,0.59924,0.59924,0,0,0,.6066-0.0371l1.3169-.9126,1.5254,1.5256-0.9128,1.3234a0.60114,0.60114,0,0,0-.0367.6065,5.80837,5.80837,0,0,1,.386.9439,0.60062,0.60062,0,0,0,.4595.4043l1.5807,0.288v2.1567l-1.5807.2887a0.60062,0.60062,0,0,0-.4595.4043,5.80208,5.80208,0,0,1-.392.9432,0.60217,0.60217,0,0,0,.0367.6072l0.9188,1.3169-1.5254,1.5257-1.3169-.9068a0.601,0.601,0,0,0-.6066-0.0429,5.83706,5.83706,0,0,1-.9558.3984,0.60146,0.60146,0,0,0-.3983.4531l-0.2877,1.5816H7.74371l-0.2879-1.5816a0.601,0.601,0,0,0-.3982-0.4531,5.89837,5.89837,0,0,1-.9618-0.3926,0.60063,0.60063,0,0,0-.6066.0371l-1.317.9068-1.5194-1.5198,0.9189-1.317a0.60186,0.60186,0,0,0,.0369-0.613,5.7636,5.7636,0,0,1-.3982-0.9497,0.60182,0.60182,0,0,0-.4595-0.4043l-1.5745-.2879v-2.151l1.5745-.288a0.60077,0.60077,0,0,0,.4595-0.4043,5.78742,5.78742,0,0,1,.392-0.9497,0.601,0.601,0,0,0-.0368-0.6064l-0.9188-1.3177,1.5254-1.5256,1.3294,0.9126a0.60154,0.60154,0,0,0,.6004.0371,5.85955,5.85955,0,0,1,.9556-0.3985,0.59987,0.59987,0,0,0,.3982-0.4531l0.2879-1.575h0Zm1.0783,3.5297a4.1176,4.1176,0,1,0,4.117,4.1173A4.12633,4.12633,0,0,0,8.822,293.98317Zm0,1.1758a2.94145,2.94145,0,1,1-2.9406,2.9415A2.93255,2.93255,0,0,1,8.822,295.159Z"/><path class="cls-2" d="M4.38362,277.44645v-8.18018H14.1888v2.15723H6.3304v3.86572h7.8584v2.15723H4.38362Z"/><path class="cls-2" d="M9.286,264.5529a5.21287,5.21287,0,1,1,5.0708-5.19727A5.07081,5.07081,0,0,1,9.286,264.5529Zm0-8.1665a2.9788,2.9788,0,0,0-3.08154,2.96924A2.94,2.94,0,0,0,9.286,262.29753a2.97933,2.97933,0,0,0,3.082-2.96973A2.94008,2.94008,0,0,0,9.286,256.38639Z"/><path class="cls-2" d="M12.24153,250.59538v-0.92432a15.43708,15.43708,0,0,0-6.70947-1.07861H4.38362v-7.12988h7.85791v-1.17676l3.99219,0.28027v1.80713H14.1888v6.13525l2.04492,0.14014v1.94678H12.24153ZM6.3304,246.51921H7.325a12.30332,12.30332,0,0,1,4.9165.88232v-3.78174H6.3304v2.89941Z"/><path class="cls-2" d="M8.03938,233.82145v-2.59131c0-2.21289,1.20459-3.4458,3.03955-3.4458,2.00342,0,3.10986,1.38672,3.10986,3.65625v4.53809H4.38362v-7.522H6.3304v5.36475h1.709Zm1.793,0h2.40918v-2.38086c0-1.00879-.39209-1.499-1.24658-1.499-0.75635,0-1.1626.49023-1.1626,1.5127v2.36719Z"/><path class="cls-2" d="M9.286,223.64518a5.21287,5.21287,0,1,1,5.0708-5.19678A5.07081,5.07081,0,0,1,9.286,223.64518Zm0-8.1665a2.9789,2.9789,0,0,0-3.08154,2.96973A2.94,2.94,0,0,0,9.286,221.38981a2.97933,2.97933,0,0,0,3.082-2.96973A2.94008,2.94008,0,0,0,9.286,215.47868Z"/><path class="cls-2" d="M4.38362,208.5109V204.505c0-2.33936,1.38672-3.75439,3.41748-3.75439,2.26953,0,3.44629,1.76514,3.44629,3.96436v1.63867H14.1888v2.15723H4.38362ZM9.328,204.64469a1.52262,1.52262,0,0,0-1.5127-1.7085,1.49039,1.49039,0,0,0-1.48486,1.751v1.6665H9.328v-1.709Z"/><path class="cls-2" d="M4.38362,189.359v-8.18018H14.1888v2.15723H6.3304v3.86572h7.8584V189.359H4.38362Z"/><path class="cls-2" d="M9.286,176.46549a5.21287,5.21287,0,1,1,5.0708-5.19678A5.07081,5.07081,0,0,1,9.286,176.46549Zm0-8.1665a2.9789,2.9789,0,0,0-3.08154,2.96973A2.94,2.94,0,0,0,9.286,174.21012a2.97933,2.97933,0,0,0,3.082-2.96973A2.94008,2.94008,0,0,0,9.286,168.299Z"/><path class="cls-2" d="M4.38362,154.33122V146.151H14.1888v2.15723H6.3304V152.174h7.8584v2.15723H4.38362Z"/><path class="cls-2" d="M4.31331,137.64176V135.653l9.87549-4.20264v2.25537l-2.19922.89648v4.14648l2.19922,0.89648v2.19873Zm5.77148-2.269-3.18018,1.30273,3.18018,1.30273v-2.60547Z"/><path class="cls-2" d="M4.38362,127.14372v-4.00586c0-2.33936,1.38672-3.75439,3.41748-3.75439,2.26953,0,3.44629,1.76514,3.44629,3.96436v1.63867H14.1888v2.15723H4.38362ZM9.328,123.27751a1.52262,1.52262,0,0,0-1.5127-1.7085A1.49039,1.49039,0,0,0,6.3304,123.32v1.6665H9.328v-1.709Z"/><path class="cls-2" d="M4.31331,112.60954v-1.98877l9.87549-4.20264v2.25537l-2.19922.89648v4.14648L14.1888,114.613v2.19873Zm5.77148-2.269-3.18018,1.30273,3.18018,1.30273v-2.60547Z"/><path class="cls-2" d="M4.38362,102.11149V99.7863l4.146-2.57715-4.146-2.57764v-2.3252H14.1888v2.14307H7.78743l4.188,2.75977v0.05566l-4.146,2.73145H14.1888v2.11523H4.38362Z"/><path class="cls-2" d="M4.38362,87.15934v-7.396H6.30257v5.25293H8.29182V80.39372h1.91895v4.62256h2.05908V79.69352H14.1888v7.46582H4.38362Z"/><path class="cls-2" d="M6.37239,72.69645v2.98389H4.38362V67.55583H6.37239v2.9834H14.1888v2.15723H6.37239Z"/><path class="cls-2" d="M4.38362,63.10758V59.10172c0-2.33936,1.38672-3.75439,3.41748-3.75439,2.26953,0,3.44629,1.76514,3.44629,3.96436v1.63867H14.1888v2.15723H4.38362ZM9.328,59.24137a1.52262,1.52262,0,0,0-1.5127-1.7085,1.49039,1.49039,0,0,0-1.48486,1.751v1.6665H9.328v-1.709Z"/><path class="cls-2" d="M4.31331,48.57389V46.58512l9.87549-4.20264v2.25537l-2.19922.89648v4.14648l2.19922,0.89648v2.19922Zm5.77148-2.269L6.90462,47.60758l3.18018,1.30273V46.30485Z"/><path class="cls-2" d="M4.38362,38.07585v-2.3252l4.146-2.57715-4.146-2.57764v-2.3252H14.1888v2.14307H7.78743l4.188,2.75977v0.05566l-4.146,2.73145H14.1888v2.11523H4.38362Z"/><path class="cls-2" d="M8.76849,4.803h3.8216v0.0015l0.0182-.0015h1.5404l-3.1858-3.1879a0.93792,0.93792,0,0,1,0-1.3263l0.0134-.0139a0.93714,0.93714,0,0,1,1.3261,0l4.7205,4.7231a1.01263,1.01263,0,0,1,.0972.0792l0.0048,0.0051,0.0038,0.0036,0.0048,0.0051a0.88965,0.88965,0,0,1,.085.104c0.0083,0.0109.0184,0.0204,0.0261,0.032a0.93366,0.93366,0,0,1,.1631.5316l0.0005,0.0043-0.0005.0044a0.93388,0.93388,0,0,1-.1631.5316c-0.0075.0116-.0175,0.0203-0.0256,0.032a0.97354,0.97354,0,0,1-.0855.1047l-0.0052.0051-0.0034.0028-0.0048.0052a0.94833,0.94833,0,0,1-.0972.08l-4.7205,4.723a0.93732,0.93732,0,0,1-1.3261,0l-0.0134-.0131a0.93889,0.93889,0,0,1,0-1.3271l3.1857-3.188h-1.5403l-0.0182-.0014v0.0014H8.76849a2.88429,2.88429,0,0,0-2.88,2.8819v2.8788a0.96,0.96,0,1,1-1.92,0V9.60537A4.80085,4.80085,0,0,1,8.76849,4.803Z"/></svg>