<?xml version="1.0" encoding="utf-8"?>
<!-- Generator: Adobe Illustrator 18.0.0, SVG Export Plug-In . SVG Version: 6.00 Build 0)  -->
<!DOCTYPE svg PUBLIC "-//W3C//DTD SVG 1.1//EN" "http://www.w3.org/Graphics/SVG/1.1/DTD/svg11.dtd">
<svg version="1.1" id="Layer_1" xmlns="http://www.w3.org/2000/svg" xmlns:xlink="http://www.w3.org/1999/xlink" x="0px" y="0px"
	 viewBox="0 0 17.6 17.6" enable-background="new 0 0 17.6 17.6" xml:space="preserve">
<path fill="#FFFFFF" d="M7.3,0C7,0,6.7,0.3,6.7,0.5L6.4,2.2C6.2,2.3,6.1,2.3,5.9,2.4l-1.5-1C4.2,1.3,3.9,1.3,3.7,1.5L1.5,3.7
	C1.3,3.9,1.2,4.2,1.4,4.4l1,1.5C2.3,6,2.3,6.2,2.2,6.4L0.5,6.7C0.2,6.7,0,7,0,7.3v3.1c0,0.3,0.2,0.5,0.5,0.6l1.7,0.3
	c0.1,0.2,0.1,0.3,0.2,0.5l-1,1.5c-0.2,0.2-0.1,0.6,0.1,0.7l2.2,2.2c0.2,0.2,0.5,0.2,0.8,0.1l1.5-1c0.1,0.1,0.3,0.1,0.5,0.2l0.3,1.7
	c0,0.3,0.3,0.5,0.6,0.5h3.1c0.3,0,0.5-0.2,0.6-0.5l0.3-1.7c0.2-0.1,0.3-0.1,0.5-0.2l1.5,1c0.2,0.2,0.6,0.1,0.8-0.1l2.2-2.2
	c0.2-0.2,0.2-0.5,0.1-0.7l-1-1.5c0.1-0.1,0.1-0.3,0.2-0.4l1.8-0.3c0.3,0,0.5-0.3,0.5-0.6V7.3c0-0.3-0.2-0.5-0.5-0.6l-1.7-0.3
	c-0.1-0.2-0.1-0.3-0.2-0.4l1-1.5c0.2-0.2,0.1-0.6-0.1-0.7l-2.2-2.2c-0.2-0.2-0.5-0.2-0.8-0.1l-1.5,1c-0.1-0.1-0.3-0.1-0.5-0.2
	L11,0.5C10.9,0.2,10.7,0,10.4,0H7.3z M7.7,1.2h2.2l0.3,1.6c0,0.2,0.2,0.4,0.4,0.5c0.3,0.1,0.7,0.2,1,0.4c0.2,0.1,0.4,0.1,0.6,0
	l1.3-0.9L15,4.2l-0.9,1.3c-0.1,0.2-0.1,0.4,0,0.6c0.2,0.3,0.3,0.6,0.4,0.9c0.1,0.2,0.2,0.4,0.5,0.4l1.6,0.3v2.2l-1.6,0.3
	c-0.2,0-0.4,0.2-0.5,0.4c-0.1,0.3-0.2,0.6-0.4,0.9c-0.1,0.2-0.1,0.4,0,0.6l0.9,1.3L13.5,15l-1.3-0.9c-0.2-0.1-0.4-0.1-0.6,0
	c-0.3,0.2-0.6,0.3-1,0.4c-0.2,0.1-0.4,0.2-0.4,0.5l-0.3,1.6H7.7l-0.3-1.6c0-0.2-0.2-0.4-0.4-0.5c-0.3-0.1-0.7-0.2-1-0.4
	c-0.2-0.1-0.4-0.1-0.6,0L4.2,15l-1.5-1.5l0.9-1.3c0.1-0.2,0.1-0.4,0-0.6c-0.2-0.3-0.3-0.6-0.4-0.9c-0.1-0.2-0.2-0.4-0.5-0.4L1.2,9.9
	V7.7l1.6-0.3c0.2,0,0.4-0.2,0.5-0.4c0.1-0.3,0.2-0.6,0.4-0.9c0.1-0.2,0.1-0.4,0-0.6L2.6,4.2l1.5-1.5l1.3,0.9c0.2,0.1,0.4,0.1,0.6,0
	c0.3-0.2,0.6-0.3,1-0.4C7.3,3.1,7.4,3,7.5,2.8L7.7,1.2L7.7,1.2z M8.8,4.7c-2.3,0-4.1,1.9-4.1,4.1s1.9,4.1,4.1,4.1
	c2.3,0,4.1-1.9,4.1-4.1S11.1,4.7,8.8,4.7z M8.8,5.9c1.6,0,2.9,1.3,2.9,2.9c0,1.6-1.3,2.9-2.9,2.9s-2.9-1.3-2.9-2.9
	C5.9,7.2,7.2,5.9,8.8,5.9z"/>
</svg>
