<?xml version="1.0" encoding="utf-8"?>
<!-- Generator: Adobe Illustrator 18.0.0, SVG Export Plug-In . SVG Version: 6.00 Build 0)  -->
<!DOCTYPE svg PUBLIC "-//W3C//DTD SVG 1.1//EN" "http://www.w3.org/Graphics/SVG/1.1/DTD/svg11.dtd">
<svg version="1.1" id="Layer_1" xmlns="http://www.w3.org/2000/svg" xmlns:xlink="http://www.w3.org/1999/xlink" x="0px" y="0px"
	 viewBox="0 0 95.6 15.3" enable-background="new 0 0 95.6 15.3" xml:space="preserve">
<g>
	<path fill-rule="evenodd" clip-rule="evenodd" fill="#FED224" d="M8,0l2.6,4.8l5.4,1l-3.7,4l0.7,5.4L8,12.9l-4.9,2.3l0.7-5.4L0,5.8
		l5.4-1L8,0"/>
	<path fill-rule="evenodd" clip-rule="evenodd" fill="#FED224" d="M28,0l2.6,4.8l5.4,1l-3.7,4l0.7,5.4L28,12.9l-4.9,2.3l0.7-5.4
		l-3.7-4l5.4-1L28,0"/>
	<path fill-rule="evenodd" clip-rule="evenodd" fill="#FED224" d="M48,0l2.6,4.8l5.4,1l-3.7,4l0.7,5.4L48,12.9L43,15.2l0.7-5.4
		l-3.7-4l5.4-1L48,0"/>
	<path fill-rule="evenodd" clip-rule="evenodd" fill="#FED224" d="M68,0l2.6,4.8l5.4,1l-3.7,4l0.7,5.4L68,12.9L63,15.2l0.7-5.4
		l-3.7-4l5.4-1L68,0"/>
	<g>
		<path fill-rule="evenodd" clip-rule="evenodd" fill="#FFFFFF" d="M88,1.7l2.2,4l4.4,0.9l-3.1,3.3l0.6,4.5L88,12.4l-4.1,1.9
			l0.6-4.5l-3.1-3.3l4.4-0.9L88,1.7"/>
		<path fill="#D4D8E0" d="M92.1,15.3c-0.1,0-0.3,0-0.4-0.1L88,13.5l-3.7,1.7c-0.3,0.2-0.7,0.1-1-0.1c-0.3-0.2-0.4-0.6-0.4-0.9l0.5-4
			l-2.8-3c-0.2-0.3-0.3-0.6-0.2-1c0.1-0.3,0.4-0.6,0.8-0.7l4-0.8l2-3.5c0.4-0.6,1.4-0.6,1.8,0l2,3.5l4,0.8c0.4,0.1,0.6,0.3,0.8,0.7
			c0.1,0.3,0,0.7-0.2,1l-2.8,3l0.5,4c0,0.4-0.1,0.7-0.4,0.9C92.5,15.2,92.3,15.3,92.1,15.3z M88,11.4c0.1,0,0.3,0,0.4,0.1l2.5,1.2
			l-0.3-2.7c0-0.3,0.1-0.6,0.3-0.8l1.9-2L90,6.6c-0.3-0.1-0.5-0.2-0.7-0.5L88,3.7l-1.3,2.4c-0.1,0.3-0.4,0.4-0.7,0.5l-2.7,0.5l1.9,2
			c0.2,0.2,0.3,0.5,0.3,0.8l-0.3,2.7l2.5-1.2C87.7,11.4,87.8,11.4,88,11.4z"/>
	</g>
</g>
</svg>
