<?xml version="1.0" encoding="utf-8"?>
<!-- Generator: Adobe Illustrator 18.0.0, SVG Export Plug-In . SVG Version: 6.00 Build 0)  -->
<!DOCTYPE svg PUBLIC "-//W3C//DTD SVG 1.1//EN" "http://www.w3.org/Graphics/SVG/1.1/DTD/svg11.dtd">
<svg version="1.1" id="Layer_1" xmlns="http://www.w3.org/2000/svg" xmlns:xlink="http://www.w3.org/1999/xlink" x="0px" y="0px"
	 viewBox="0 0 94.6 14.6" enable-background="new 0 0 94.6 14.6" xml:space="preserve">
<g>
	<g>
		<path fill-rule="evenodd" clip-rule="evenodd" fill="#FFFFFF" d="M47.9,1l2.2,4l4.4,0.9l-3.1,3.3l0.6,4.5l-4.1-1.9l-4.1,1.9
			l0.6-4.5l-3.1-3.3L45.7,5L47.9,1"/>
		<path fill="#D4D8E0" d="M43.8,14.6c-0.2,0-0.4-0.1-0.6-0.2c-0.3-0.2-0.4-0.6-0.4-0.9l0.5-4l-2.8-3c-0.2-0.3-0.3-0.6-0.2-1
			s0.4-0.6,0.8-0.7l4-0.8l2-3.5c0.4-0.6,1.4-0.6,1.8,0l2,3.5l4,0.8c0.4,0.1,0.7,0.3,0.8,0.7s0,0.7-0.2,1l-2.8,3l0.5,4
			c0,0.4-0.1,0.7-0.4,0.9c-0.3,0.2-0.7,0.3-1,0.1l-3.7-1.7l-3.7,1.7C44.1,14.6,44,14.6,43.8,14.6z M43.3,6.5l1.9,2
			c0.2,0.2,0.3,0.5,0.3,0.8L45,12l2.5-1.2c0.3-0.1,0.6-0.1,0.8,0l2.5,1.2l-0.3-2.7c0-0.3,0.1-0.6,0.3-0.8l1.9-2L49.9,6
			c-0.3-0.1-0.5-0.2-0.7-0.5l-1.3-2.4l-1.3,2.4c-0.1,0.3-0.4,0.4-0.7,0.5L43.3,6.5z"/>
	</g>
	<g>
		<path fill-rule="evenodd" clip-rule="evenodd" fill="#FFFFFF" d="M67.4,1l2.2,4L74,5.9l-3.1,3.3l0.6,4.5l-4.1-1.9l-4.1,1.9
			l0.6-4.5l-3.1-3.3L65.2,5L67.4,1"/>
		<path fill="#D4D8E0" d="M71.5,14.6c-0.1,0-0.3,0-0.4-0.1l-3.7-1.7l-3.7,1.7c-0.3,0.2-0.7,0.1-1-0.1c-0.3-0.2-0.4-0.6-0.4-0.9
			l0.5-4l-2.8-3c-0.2-0.3-0.3-0.6-0.2-1s0.4-0.6,0.8-0.7l4-0.8l2-3.5C66.7,0.2,67,0,67.4,0l0,0c0.4,0,0.7,0.2,0.9,0.5l2,3.5l4,0.8
			c0.4,0.1,0.7,0.3,0.8,0.7s0,0.7-0.2,1l-2.8,3l0.5,4c0,0.4-0.1,0.7-0.4,0.9C71.9,14.6,71.7,14.6,71.5,14.6z M62.7,6.5l1.9,2
			c0.2,0.2,0.3,0.5,0.3,0.8L64.5,12l2.5-1.2c0.3-0.1,0.6-0.1,0.8,0l2.5,1.2l-0.3-2.7c0-0.3,0.1-0.6,0.3-0.8l1.9-2L69.4,6
			c-0.3-0.1-0.5-0.2-0.7-0.5l-1.3-2.4l-1.3,2.4c-0.1,0.3-0.4,0.4-0.7,0.5L62.7,6.5z"/>
	</g>
	<g>
		<path fill-rule="evenodd" clip-rule="evenodd" fill="#FFFFFF" d="M87,1l2.2,4l4.4,0.9l-3.1,3.3l0.6,4.5L87,11.7l-4.1,1.9l0.6-4.5
			l-3.1-3.3L84.8,5L87,1"/>
		<path fill="#D4D8E0" d="M82.9,14.6c-0.2,0-0.4-0.1-0.6-0.2c-0.3-0.2-0.4-0.6-0.4-0.9l0.5-4l-2.8-3c-0.2-0.3-0.3-0.6-0.2-1
			s0.4-0.6,0.8-0.7l4-0.8l2-3.6c0.4-0.6,1.4-0.6,1.8,0l2,3.5l4,0.8c0.4,0.1,0.7,0.3,0.8,0.7s0,0.7-0.2,1l-2.8,3l0.5,4
			c0,0.4-0.1,0.7-0.4,0.9c-0.3,0.2-0.7,0.3-1,0.1L87,12.8l-3.7,1.7C83.2,14.6,83,14.6,82.9,14.6z M87,10.7c0.1,0,0.3,0,0.4,0.1
			l2.5,1.2l-0.3-2.7c0-0.3,0.1-0.6,0.3-0.8l1.9-2L89,6c-0.3-0.1-0.5-0.2-0.7-0.5L87,3.1l-1.3,2.4C85.5,5.7,85.3,5.9,85,6l-2.7,0.5
			l1.9,2c0.2,0.2,0.3,0.5,0.3,0.8L84.1,12l2.5-1.2C86.7,10.8,86.8,10.7,87,10.7z"/>
	</g>
	<g>
		<path fill-rule="evenodd" clip-rule="evenodd" fill="#FFFFFF" d="M28.1,1l2.2,4l4.4,0.9l-3.1,3.3l0.6,4.5l-4.1-1.9L24,13.6
			l0.6-4.5l-3.1-3.3L25.9,5L28.1,1"/>
		<path fill="#D4D8E0" d="M24,14.6c-0.2,0-0.4-0.1-0.6-0.2c-0.3-0.2-0.4-0.6-0.4-0.9l0.5-4l-2.8-3c-0.2-0.3-0.3-0.6-0.2-1
			s0.4-0.6,0.8-0.7l4-0.8l2-3.5c0.4-0.6,1.4-0.6,1.8,0l2,3.5l4,0.8c0.4,0.1,0.7,0.3,0.8,0.7s0,0.7-0.2,1l-2.8,3l0.5,4
			c0,0.4-0.1,0.7-0.4,0.9c-0.3,0.2-0.7,0.3-1,0.1l-3.7-1.7l-3.7,1.7C24.3,14.6,24.1,14.6,24,14.6z M28.1,10.7c0.1,0,0.3,0,0.4,0.1
			L31,12l-0.3-2.7c0-0.3,0.1-0.6,0.3-0.8l1.9-2L30.1,6c-0.3-0.1-0.5-0.2-0.7-0.5l-1.3-2.4l-1.3,2.4c-0.1,0.3-0.4,0.4-0.7,0.5
			l-2.7,0.5l1.9,2c0.2,0.2,0.3,0.5,0.3,0.8L25.2,12l2.5-1.2C27.8,10.8,27.9,10.7,28.1,10.7z"/>
	</g>
	<g>
		<path fill-rule="evenodd" clip-rule="evenodd" fill="#FFFFFF" d="M7.6,1l2.2,4l4.4,0.9l-3.1,3.3l0.6,4.5l-4.1-1.9l-4.1,1.9
			l0.6-4.5L1,5.8l4.4-0.9L7.6,1"/>
		<path fill="#D4D8E0" d="M11.7,14.6c-0.1,0-0.3,0-0.4-0.1l-3.7-1.7L4,14.5c-0.3,0.2-0.7,0.1-1-0.1c-0.3-0.2-0.4-0.6-0.4-0.9l0.5-4
			l-2.8-3C0,6.2-0.1,5.8,0,5.5c0.1-0.3,0.4-0.6,0.8-0.7l4-0.8l2-3.6c0.4-0.6,1.4-0.6,1.8,0l2,3.6l4,0.8c0.4,0.1,0.7,0.3,0.8,0.7
			c0.1,0.3,0,0.7-0.2,1l-2.8,3l0.5,4c0,0.4-0.1,0.7-0.4,0.9C12.1,14.5,11.9,14.6,11.7,14.6z M7.6,10.6c0.1,0,0.3,0,0.4,0.1l2.5,1.2
			l-0.3-2.7c0-0.3,0.1-0.6,0.3-0.8l1.9-2L9.6,5.9C9.3,5.8,9.1,5.7,8.9,5.4L7.6,3L6.3,5.4C6.2,5.7,5.9,5.8,5.6,5.9L3,6.4l1.9,2
			C5,8.6,5.1,8.9,5.1,9.2l-0.3,2.7l2.5-1.2C7.3,10.7,7.5,10.6,7.6,10.6z"/>
	</g>
</g>
</svg>
