<?xml version="1.0" encoding="utf-8"?>
<!-- Generator: Adobe Illustrator 18.0.0, SVG Export Plug-In . SVG Version: 6.00 Build 0)  -->
<!DOCTYPE svg PUBLIC "-//W3C//DTD SVG 1.1//EN" "http://www.w3.org/Graphics/SVG/1.1/DTD/svg11.dtd">
<svg version="1.1" id="Layer_1" xmlns="http://www.w3.org/2000/svg" xmlns:xlink="http://www.w3.org/1999/xlink" x="0px" y="0px"
	 viewBox="0 0 95.5 15.2" enable-background="new 0 0 95.5 15.2" xml:space="preserve">
<g>
	<path fill-rule="evenodd" clip-rule="evenodd" fill="#FED224" d="M8,0l2.6,4.8l5.4,1l-3.7,4l0.7,5.4L8,12.9l-4.9,2.3l0.7-5.4L0,5.8
		l5.4-1L8,0"/>
	<g>
		<path fill-rule="evenodd" clip-rule="evenodd" fill="#FFFFFF" d="M68.4,1.4l2.2,4L75,6.2L72,9.5l0.6,4.5l-4.1-1.9L64.3,14l0.6-4.5
			l-3.1-3.3l4.4-0.9L68.4,1.4"/>
		<path fill="#D4D8E0" d="M72.5,15c-0.1,0-0.3,0-0.4-0.1l-3.7-1.7l-3.7,1.7c-0.3,0.2-0.7,0.1-1-0.1c-0.3-0.2-0.4-0.6-0.4-0.9l0.5-4
			l-2.8-3c-0.2-0.3-0.3-0.6-0.2-1s0.4-0.6,0.8-0.7l4-0.8l2-3.5c0.2-0.3,0.5-0.5,0.9-0.5l0,0c0.4,0,0.7,0.2,0.9,0.5l2,3.5l4,0.8
			c0.4,0.1,0.7,0.3,0.8,0.7s0,0.7-0.2,1l-2.8,3l0.5,4c0,0.4-0.1,0.7-0.4,0.9C72.9,14.9,72.7,15,72.5,15z M63.8,6.8l1.9,2
			c0.2,0.2,0.3,0.5,0.3,0.8l-0.3,2.7l2.5-1.2c0.3-0.1,0.6-0.1,0.8,0l2.5,1.2L71,9.6c0-0.3,0.1-0.6,0.3-0.8l1.9-2l-2.7-0.5
			c-0.3-0.1-0.5-0.2-0.7-0.5l-1.3-2.4l-1.3,2.4c-0.1,0.3-0.4,0.4-0.7,0.5L63.8,6.8z"/>
	</g>
	<g>
		<path fill-rule="evenodd" clip-rule="evenodd" fill="#FFFFFF" d="M87.9,1.4l2.2,4l4.4,0.9l-3.1,3.3L92,14l-4.1-1.9L83.8,14
			l0.6-4.5l-3.1-3.3l4.4-0.9L87.9,1.4"/>
		<path fill="#D4D8E0" d="M83.8,15c-0.2,0-0.4-0.1-0.6-0.2c-0.3-0.2-0.4-0.6-0.4-0.9l0.5-4l-2.8-3c-0.2-0.3-0.3-0.6-0.2-1
			s0.4-0.6,0.8-0.7l4-0.8l2-3.6c0.4-0.6,1.4-0.6,1.8,0l2,3.5l4,0.8c0.4,0.1,0.7,0.3,0.8,0.7s0,0.7-0.2,1l-2.8,3l0.5,4
			c0,0.4-0.1,0.7-0.4,0.9c-0.3,0.2-0.7,0.3-1,0.1l-3.7-1.7l-3.7,1.7C84.1,14.9,83.9,15,83.8,15z M87.9,11.1c0.1,0,0.3,0,0.4,0.1
			l2.5,1.2l-0.3-2.7c0-0.3,0.1-0.6,0.3-0.8l1.9-2l-2.7-0.5c-0.3-0.1-0.5-0.2-0.7-0.5l-1.3-2.4l-1.3,2.4c-0.1,0.3-0.4,0.4-0.7,0.5
			l-2.7,0.5l1.9,2c0.2,0.2,0.3,0.5,0.3,0.8L85,12.3l2.5-1.2C87.6,11.1,87.7,11.1,87.9,11.1z"/>
	</g>
	<g>
		<path fill-rule="evenodd" clip-rule="evenodd" fill="#FFFFFF" d="M48.6,1.4l2.2,4l4.4,0.9l-3.1,3.3l0.6,4.5l-4.1-1.9L44.5,14
			L45,9.5l-3.1-3.3l4.4-0.9L48.6,1.4"/>
		<path fill="#D4D8E0" d="M52.7,15c-0.1,0-0.3,0-0.4-0.1l-3.7-1.7l-3.7,1.7c-0.3,0.2-0.7,0.1-1-0.1c-0.3-0.2-0.4-0.6-0.4-0.9l0.5-4
			l-2.8-3c-0.2-0.3-0.3-0.6-0.2-1s0.4-0.6,0.8-0.7l4-0.8l2-3.5c0.4-0.6,1.4-0.6,1.8,0l2,3.5l4,0.8c0.4,0.1,0.7,0.3,0.8,0.7
			s0,0.7-0.2,1l-2.8,3l0.5,4c0,0.4-0.1,0.7-0.4,0.9C53.1,14.9,52.9,15,52.7,15z M48.6,11.1c0.1,0,0.3,0,0.4,0.1l2.5,1.2l-0.3-2.7
			c0-0.3,0.1-0.6,0.3-0.8l1.9-2l-2.7-0.5c-0.3-0.1-0.5-0.2-0.7-0.5l-1.3-2.4l-1.3,2.4c-0.1,0.3-0.4,0.4-0.7,0.5l-2.7,0.5l1.9,2
			C46,9,46.1,9.3,46,9.6l-0.3,2.7l2.5-1.2C48.3,11.1,48.4,11.1,48.6,11.1z"/>
	</g>
	<g>
		<path fill-rule="evenodd" clip-rule="evenodd" fill="#FFFFFF" d="M28.1,1.3l2.2,4l4.4,0.9l-3.1,3.3l0.6,4.5L28.1,12L24,13.9
			l0.6-4.5l-3.1-3.3l4.4-0.9L28.1,1.3"/>
		<path fill="#D4D8E0" d="M24,14.9c-0.2,0-0.4-0.1-0.6-0.2c-0.3-0.2-0.4-0.6-0.4-0.9l0.5-4l-2.8-3c-0.2-0.3-0.3-0.6-0.2-1
			s0.4-0.6,0.8-0.7l4-0.8l2-3.5c0.4-0.6,1.4-0.6,1.8,0l2,3.5l4,0.8c0.4,0.1,0.7,0.3,0.8,0.7s0,0.7-0.2,1l-2.8,3l0.5,4
			c0,0.4-0.1,0.7-0.4,0.9c-0.3,0.2-0.7,0.3-1,0.1l-3.7-1.7l-3.7,1.7C24.3,14.9,24.2,14.9,24,14.9z M23.5,6.8l1.9,2
			c0.2,0.2,0.3,0.5,0.3,0.8l-0.3,2.7l2.5-1.2c0.3-0.1,0.6-0.1,0.8,0l2.5,1.2l-0.3-2.7c0-0.3,0.1-0.6,0.3-0.8l1.9-2l-2.7-0.5
			c-0.3-0.1-0.5-0.2-0.7-0.5l-1.3-2.4l-1.3,2.4c-0.1,0.3-0.4,0.4-0.7,0.5L23.5,6.8z"/>
	</g>
</g>
</svg>
